<svg xmlns="http://www.w3.org/2000/svg" width="23" height="33" viewBox="0 0 23 33">
    <defs>
        <linearGradient id="a" x1="40.643%" x2="49.495%" y1="2.847%" y2="94.081%">
            <stop offset="0%" stop-color="#921EFF"/>
            <stop offset="50.711%" stop-color="#1C73FF"/>
            <stop offset="100%" stop-color="#176FFF"/>
        </linearGradient>
        <linearGradient id="b" x1="81.552%" x2="27.864%" y1="58.271%" y2="2.098%">
            <stop offset="0%" stop-color="#51DBFF"/>
            <stop offset="29.02%" stop-color="#44A3FF"/>
            <stop offset="100%" stop-color="#B891FF"/>
        </linearGradient>
    </defs>
    <g fill="none" fill-rule="evenodd">
        <path fill="url(#a)" d="M22.822 19.975c.669 5.05-2.103 9.947-6.7 11.998A11.332 11.332 0 0 1 2.824 28.9 11.585 11.585 0 0 1 .13 22.17c-.161-2.573.52-4.86 1.884-7.002 1.322-2.077 2.835-4.001 4.31-5.96 1.48-1.968 2.882-3.952 3.975-6.184.88 6.54 5.363 8.758 8.11 10.73 2.832 2.031 3.817 3.8 4.414 6.22zm-11.309 7.041c2.907 0 5.349-2.208 5.669-5.127a5.529 5.529 0 0 0-.802-3.527c-.796-1.276-1.688-2.489-2.578-3.7-.778-1.059-1.556-2.116-2.289-3.206-.732 1.09-1.51 2.147-2.288 3.205-.89 1.212-1.782 2.425-2.578 3.701a5.53 5.53 0 0 0-.802 3.527c.32 2.919 2.761 5.127 5.668 5.127z"/>
        <path fill="url(#b)" d="M10.298 3.025c.88 6.54 5.363 8.759 8.11 10.73 2.832 2.031 3.817 3.8 4.414 6.22-.329-2.481-1.23-4-2.587-5.985-1.24-1.814-2.603-3.53-3.912-5.29-1.313-1.767-2.543-3.56-3.53-5.545A23.164 23.164 0 0 1 11.536.108l-.017-.051c-.001-.005-.005-.019-.008-.01l-.008.025-.034.101a21.43 21.43 0 0 1-.509 1.374c-.204.5-.425.992-.662 1.478z"/>
    </g>
</svg>
